<?xml version="1.0" standalone="no"?>
<!DOCTYPE svg PUBLIC "-//W3C//DTD SVG 20010904//EN"
 "http://www.w3.org/TR/2001/REC-SVG-20010904/DTD/svg10.dtd">
<svg version="1.0" xmlns="http://www.w3.org/2000/svg"
 width="1024.000000pt" height="1024.000000pt" viewBox="0 0 1024.000000 1024.000000"
 preserveAspectRatio="xMidYMid meet">
<metadata>
Created by potrace 1.16, written by Peter Selinger 2001-2019
</metadata>
<g transform="translate(0.000000,1024.000000) scale(0.100000,-0.100000)"
fill="#000000" stroke="none">
<path d="M4015 8859 c-142 -29 -277 -138 -352 -284 -45 -88 -186 -483 -338
-947 l-97 -296 -67 -12 c-101 -17 -356 -85 -450 -120 -238 -87 -370 -196 -371
-304 -1 -151 249 -293 646 -366 l122 -22 7 -55 c4 -30 5 -55 3 -56 -98 -49
-155 -107 -189 -193 -21 -54 -23 -73 -23 -219 1 -139 4 -173 27 -260 41 -156
105 -274 196 -365 52 -51 96 -84 138 -104 l62 -29 26 -75 c13 -42 24 -76 22
-78 -1 -1 -25 -13 -53 -27 -174 -88 -430 -251 -639 -407 -166 -125 -189 -149
-188 -197 1 -41 -27 -11 350 -370 l201 -192 -231 -115 c-128 -63 -275 -142
-327 -176 -382 -248 -596 -539 -699 -951 -47 -184 -56 -285 -56 -604 0 -255 2
-296 18 -337 22 -56 90 -122 144 -138 27 -8 857 -10 3038 -8 l3000 3 56 26
c63 30 108 79 125 136 l11 38 -230 305 c-126 168 -236 312 -244 321 -12 15
-19 14 -76 -6 -216 -79 -532 -103 -780 -59 -562 98 -1034 532 -1194 1098 l-26
93 -93 -139 c-154 -230 -518 -698 -543 -698 -20 0 -299 330 -458 540 -253 336
-372 545 -451 791 -26 79 -62 218 -62 235 0 3 30 -20 68 -49 176 -142 394
-243 632 -294 119 -25 391 -25 510 0 111 24 251 70 320 105 l54 27 32 125 c17
69 44 154 59 190 14 36 29 71 32 79 4 8 -27 -9 -68 -36 -377 -255 -843 -282
-1260 -73 -206 104 -438 307 -568 498 -113 167 -204 377 -241 555 -11 56 -12
57 -45 57 -18 0 -63 9 -99 20 -171 53 -289 258 -290 505 0 104 17 169 48 181
23 9 75 -21 143 -81 l61 -55 86 0 86 0 0 261 0 262 128 -7 c282 -14 1772 -19
2216 -7 246 7 450 11 452 9 2 -2 4 -121 6 -263 l3 -260 70 -3 c38 -2 79 -1 91
2 11 3 51 32 87 65 77 67 121 90 146 74 29 -18 43 -91 38 -198 -14 -285 -154
-479 -363 -501 l-59 -6 -31 -127 c-18 -69 -35 -133 -38 -142 -5 -10 20 -2 76
25 46 23 128 56 183 75 129 44 171 68 234 137 91 99 147 219 182 388 24 117
29 303 9 387 -23 100 -95 191 -174 220 -24 9 -35 18 -31 27 3 7 5 33 5 57 l0
44 48 6 c281 40 535 129 645 225 206 182 39 374 -441 509 -75 21 -189 49 -252
61 -63 13 -116 24 -118 25 -1 1 -33 103 -71 226 -146 471 -312 943 -366 1039
-20 36 -62 91 -92 122 -148 150 -343 184 -603 104 -251 -76 -447 -116 -571
-116 -128 0 -307 36 -546 111 -104 33 -146 41 -228 44 -55 2 -122 0 -150 -6z"/>
<path d="M4225 6251 c-139 -36 -216 -180 -173 -325 16 -55 99 -138 154 -154
196 -58 363 118 302 319 -15 51 -70 114 -120 140 -45 23 -118 32 -163 20z"/>
<path d="M5535 6251 c-139 -36 -216 -180 -173 -323 17 -59 88 -133 145 -152
89 -30 165 -17 233 41 131 113 115 321 -33 407 -46 27 -125 39 -172 27z"/>
<path d="M4361 5164 c-39 -32 -50 -83 -28 -130 21 -43 78 -84 192 -139 302
-146 672 -120 946 66 72 49 96 95 80 151 -14 45 -59 78 -106 78 -18 0 -58 -17
-100 -43 -92 -57 -154 -82 -247 -101 -205 -42 -431 1 -586 111 -59 42 -107 44
-151 7z"/>
<path d="M6925 5130 c-437 -50 -827 -325 -1029 -726 -94 -186 -136 -369 -136
-588 0 -280 66 -504 215 -727 197 -296 496 -494 853 -566 123 -25 386 -24 502
0 110 24 217 60 304 103 56 27 72 32 82 22 6 -7 143 -195 304 -418 161 -223
303 -416 314 -429 58 -66 204 -92 291 -52 90 41 155 156 142 252 -10 72 16 38
-557 743 l-156 191 62 76 c420 520 363 1302 -127 1764 -180 169 -406 286 -647
334 -116 24 -306 33 -417 21z m337 -404 c354 -68 628 -328 718 -682 125 -489
-177 -995 -668 -1120 -116 -30 -308 -33 -430 -8 -355 73 -644 363 -719 722
-12 58 -14 111 -10 217 6 161 20 220 83 354 130 276 350 451 645 516 85 18
289 19 381 1z"/>
</g>
</svg>
